<svg xmlns="http://www.w3.org/2000/svg" width="24" height="24" viewBox="0 0 24 24">
    <path fill="#9B9B9B" fill-rule="evenodd" d="M16.243 15.18c.293.292.293.773 0 1.065-.293.293-.768.293-1.061 0l-3.177-3.18-3.2 3.202c-.295.293-.774.293-1.07 0-.294-.3-.294-.78 0-1.072l3.2-3.203L7.758 8.82c-.293-.293-.293-.773 0-1.065.292-.293.767-.293 1.06 0l3.177 3.18L15.22 7.71c.295-.292.773-.292 1.069 0 .295.3.295.773 0 1.072l-3.223 3.226 3.178 3.172zM12 0C5.372 0 0 5.37 0 12s5.372 12 12 12 12-5.37 12-12S18.628 0 12 0z"/>
</svg>
