<svg xmlns="http://www.w3.org/2000/svg" xmlns:xlink="http://www.w3.org/1999/xlink" width="42" height="100" viewBox="0 0 42 100">
    <defs>
        <path id="prefix__a" d="M0 0L14.08 0 14.08 85.796 0 85.796z"/>
    </defs>
    <g fill="none" fill-rule="evenodd">
        <circle cx="21" cy="21" r="21" fill="#FFF"/>
        <g transform="translate(14 14)">
            <mask id="prefix__b" fill="#fff">
                <use xlink:href="#prefix__a"/>
            </mask>
            <path fill="#161616" d="M12.163 81.96c-1.06 0-1.917.859-1.917 1.918s.858 1.918 1.917 1.918c1.06 0 1.917-.86 1.917-1.918 0-1.06-.857-1.917-1.917-1.917m-10.245 0C.858 81.96 0 82.819 0 83.878c0 1.059.859 1.918 1.918 1.918s1.918-.86 1.918-1.918c0-1.06-.86-1.917-1.918-1.917m10.245-10.246c-1.06 0-1.917.859-1.917 1.918s.858 1.918 1.917 1.918c1.06 0 1.917-.86 1.917-1.918 0-1.06-.857-1.918-1.917-1.918m-10.245 0c-1.06 0-1.918.859-1.918 1.918s.859 1.918 1.918 1.918 1.918-.86 1.918-1.918c0-1.06-.86-1.918-1.918-1.918M12.163 61.47c-1.06 0-1.917.859-1.917 1.918s.858 1.918 1.917 1.918c1.06 0 1.917-.86 1.917-1.918 0-1.06-.857-1.918-1.917-1.918m-10.245 0C.858 61.47 0 62.329 0 63.388s.859 1.918 1.918 1.918 1.918-.86 1.918-1.918c0-1.06-.86-1.918-1.918-1.918m10.245-10.244c-1.06 0-1.917.858-1.917 1.917 0 1.059.858 1.918 1.917 1.918 1.06 0 1.917-.86 1.917-1.918 0-1.06-.857-1.917-1.917-1.917m-10.245 0c-1.06 0-1.918.858-1.918 1.917 0 1.059.859 1.918 1.918 1.918s1.918-.86 1.918-1.918c0-1.06-.86-1.917-1.918-1.917M12.163 40.98c-1.06 0-1.917.858-1.917 1.917 0 1.059.858 1.917 1.917 1.917 1.06 0 1.917-.858 1.917-1.917 0-1.06-.857-1.917-1.917-1.917m-10.245 0C.858 40.98 0 41.839 0 42.898c0 1.059.859 1.917 1.918 1.917s1.918-.858 1.918-1.917c0-1.06-.86-1.917-1.918-1.917m10.245-10.246c-1.06 0-1.917.859-1.917 1.918s.858 1.917 1.917 1.917c1.06 0 1.917-.858 1.917-1.917 0-1.06-.857-1.918-1.917-1.918m-10.245 0c-1.06 0-1.918.859-1.918 1.918s.859 1.917 1.918 1.917 1.918-.858 1.918-1.917c0-1.06-.86-1.918-1.918-1.918M12.163 20.49c-1.06 0-1.917.859-1.917 1.918s.858 1.917 1.917 1.917c1.06 0 1.917-.858 1.917-1.917 0-1.06-.857-1.918-1.917-1.918m-10.245 0C.858 20.49 0 21.349 0 22.408s.859 1.917 1.918 1.917 1.918-.858 1.918-1.917c0-1.06-.86-1.918-1.918-1.918m10.245-10.245c-1.06 0-1.917.859-1.917 1.918s.858 1.917 1.917 1.917c1.06 0 1.917-.858 1.917-1.917 0-1.06-.857-1.918-1.917-1.918m-10.245 0c-1.06 0-1.918.859-1.918 1.918s.859 1.917 1.918 1.917 1.918-.858 1.918-1.917c0-1.06-.86-1.918-1.918-1.918m10.245-6.41c1.06 0 1.917-.858 1.917-1.917C14.08.858 13.223 0 12.163 0s-1.917.858-1.917 1.918c0 1.059.858 1.918 1.917 1.918M3.836 1.918c0 1.059-.86 1.918-1.918 1.918C.858 3.836 0 2.976 0 1.918 0 .858.859 0 1.918 0s1.918.858 1.918 1.918" mask="url(#prefix__b)"/>
        </g>
    </g>
</svg>
