<svg xmlns="http://www.w3.org/2000/svg" width="39" height="42" viewBox="0 0 39 42">
    <g fill="none" fill-rule="evenodd">
        <ellipse cx="19.25" cy="19.056" fill="#FFF" rx="19.25" ry="19.056"/>
        <path fill="#1D1D1B" d="M18.447 41.222h1.182V7h-1.182v34.222zm4.36-.935h1.182V7.937h-1.182v32.35zm-8.721 0h1.181V7.937h-1.181v32.35zm13.085-1.535h1.182V9.47H27.17v29.282zm-17.45 0h1.182V9.47H9.722v29.282zm21.811-3.704h1.182V13.173h-1.182v21.875zm-26.171 0h1.182V13.173H5.36v21.875zm30.532-6.17h1.182v-9.534h-1.182v9.534zM1 28.878h1.182v-9.534H1v9.534z"/>
    </g>
</svg>
