<svg xmlns="http://www.w3.org/2000/svg" xmlns:xlink="http://www.w3.org/1999/xlink" width="50" height="80" viewBox="0 0 50 80">
    <defs>
        <path id="prefix__a" d="M0 0L41.319 0 41.319 79.101 0 79.101z"/>
    </defs>
    <g fill="none" fill-rule="evenodd">
        <circle cx="25.5" cy="40.5" r="24.5" fill="#FFF"/>
        <mask id="prefix__b" fill="#fff">
            <use xlink:href="#prefix__a"/>
        </mask>
        <path fill="#1D1D1B" d="M1.768 3.536c.977 0 1.768-.791 1.768-1.768C3.536.792 2.745 0 1.768 0S0 .792 0 1.768c0 .977.79 1.768 1.768 1.768m9.445 0c.977 0 1.769-.791 1.769-1.768C12.982.792 12.19 0 11.212 0c-.974 0-1.766.792-1.766 1.768 0 .977.792 1.768 1.767 1.768m9.447 0c.976 0 1.767-.791 1.767-1.768C22.427.792 21.636 0 20.66 0c-.977 0-1.77.792-1.77 1.768 0 .977.793 1.768 1.77 1.768m9.445 0c.976 0 1.768-.791 1.768-1.768C31.873.792 31.08 0 30.105 0c-.977 0-1.768.792-1.768 1.768 0 .977.79 1.768 1.768 1.768m9.445 0c.977 0 1.769-.791 1.769-1.768 0-.976-.792-1.768-1.77-1.768-.974 0-1.766.792-1.766 1.768 0 .977.792 1.768 1.767 1.768M1.768 12.981c.977 0 1.768-.791 1.768-1.767 0-.977-.791-1.768-1.768-1.768S0 10.237 0 11.214c0 .976.79 1.767 1.768 1.767m9.445 0c.977 0 1.769-.791 1.769-1.767 0-.977-.792-1.768-1.77-1.768-.974 0-1.766.791-1.766 1.768 0 .976.792 1.767 1.767 1.767m9.447 0c.976 0 1.767-.791 1.767-1.767 0-.977-.791-1.768-1.767-1.768-.977 0-1.77.791-1.77 1.768 0 .976.793 1.767 1.77 1.767m9.445 0c.976 0 1.768-.791 1.768-1.767 0-.977-.792-1.768-1.768-1.768-.977 0-1.768.791-1.768 1.768 0 .976.79 1.767 1.768 1.767m9.445 0c.977 0 1.769-.791 1.769-1.767 0-.977-.792-1.768-1.77-1.768-.974 0-1.766.791-1.766 1.768 0 .976.792 1.767 1.767 1.767M1.768 22.428c.977 0 1.768-.792 1.768-1.769 0-.977-.791-1.768-1.768-1.768S0 19.682 0 20.659s.79 1.769 1.768 1.769m9.445 0c.977 0 1.769-.792 1.769-1.769 0-.977-.792-1.768-1.77-1.768-.974 0-1.766.791-1.766 1.768s.792 1.769 1.767 1.769m9.447 0c.976 0 1.767-.792 1.767-1.769 0-.977-.791-1.768-1.767-1.768-.977 0-1.77.791-1.77 1.768s.793 1.769 1.77 1.769m9.445 0c.976 0 1.768-.792 1.768-1.769 0-.977-.792-1.768-1.768-1.768-.977 0-1.768.791-1.768 1.768s.79 1.769 1.768 1.769m9.445 0c.977 0 1.769-.792 1.769-1.769 0-.977-.792-1.768-1.77-1.768-.974 0-1.766.791-1.766 1.768s.792 1.769 1.767 1.769M1.768 31.873c.977 0 1.768-.791 1.768-1.768 0-.976-.791-1.768-1.768-1.768S0 29.129 0 30.105c0 .977.79 1.768 1.768 1.768m9.445 0c.977 0 1.769-.791 1.769-1.768 0-.976-.792-1.768-1.77-1.768-.974 0-1.766.792-1.766 1.768 0 .977.792 1.768 1.767 1.768m9.447 0c.976 0 1.767-.791 1.767-1.768 0-.976-.791-1.768-1.767-1.768-.977 0-1.77.792-1.77 1.768 0 .977.793 1.768 1.77 1.768m9.445 0c.976 0 1.768-.791 1.768-1.768 0-.976-.792-1.768-1.768-1.768-.977 0-1.768.792-1.768 1.768 0 .977.79 1.768 1.768 1.768m9.445 0c.977 0 1.769-.791 1.769-1.768 0-.976-.792-1.768-1.77-1.768-.974 0-1.766.792-1.766 1.768 0 .977.792 1.768 1.767 1.768M1.768 41.318c.977 0 1.768-.791 1.768-1.767 0-.977-.791-1.768-1.768-1.768S0 38.574 0 39.551c0 .976.79 1.767 1.768 1.767m9.445 0c.977 0 1.769-.791 1.769-1.767 0-.977-.792-1.768-1.77-1.768-.974 0-1.766.791-1.766 1.768 0 .976.792 1.767 1.767 1.767m9.447 0c.976 0 1.767-.791 1.767-1.767 0-.977-.791-1.768-1.767-1.768-.977 0-1.77.791-1.77 1.768 0 .976.793 1.767 1.77 1.767m9.445 0c.976 0 1.768-.791 1.768-1.767 0-.977-.792-1.768-1.768-1.768-.977 0-1.768.791-1.768 1.768 0 .976.79 1.767 1.768 1.767m9.445 0c.977 0 1.769-.791 1.769-1.767 0-.977-.792-1.768-1.77-1.768-.974 0-1.766.791-1.766 1.768 0 .976.792 1.767 1.767 1.767M1.768 50.765c.977 0 1.768-.792 1.768-1.769 0-.977-.791-1.768-1.768-1.768S0 48.019 0 48.996s.79 1.769 1.768 1.769m9.445 0c.977 0 1.769-.792 1.769-1.769 0-.977-.792-1.768-1.77-1.768-.974 0-1.766.791-1.766 1.768s.792 1.769 1.767 1.769m9.447 0c.976 0 1.767-.792 1.767-1.769 0-.977-.791-1.768-1.767-1.768-.977 0-1.77.791-1.77 1.768s.793 1.769 1.77 1.769m9.445 0c.976 0 1.768-.792 1.768-1.769 0-.977-.792-1.768-1.768-1.768-.977 0-1.768.791-1.768 1.768s.79 1.769 1.768 1.769m9.445 0c.977 0 1.769-.792 1.769-1.769 0-.977-.792-1.768-1.77-1.768-.974 0-1.766.791-1.766 1.768s.792 1.769 1.767 1.769M1.768 60.21c.977 0 1.768-.791 1.768-1.768 0-.976-.791-1.767-1.768-1.767S0 57.466 0 58.442c0 .977.79 1.768 1.768 1.768m9.445 0c.977 0 1.769-.791 1.769-1.768 0-.976-.792-1.767-1.77-1.767-.974 0-1.766.791-1.766 1.767 0 .977.792 1.768 1.767 1.768m9.447 0c.976 0 1.767-.791 1.767-1.768 0-.976-.791-1.767-1.767-1.767-.977 0-1.77.791-1.77 1.767 0 .977.793 1.768 1.77 1.768m9.445 0c.976 0 1.768-.791 1.768-1.768 0-.976-.792-1.767-1.768-1.767-.977 0-1.768.791-1.768 1.767 0 .977.79 1.768 1.768 1.768m9.445 0c.977 0 1.769-.791 1.769-1.768 0-.976-.792-1.767-1.77-1.767-.974 0-1.766.791-1.766 1.767 0 .977.792 1.768 1.767 1.768M1.768 69.655c.977 0 1.768-.791 1.768-1.767 0-.977-.791-1.768-1.768-1.768S0 66.911 0 67.888c0 .976.79 1.767 1.768 1.767m9.445 0c.977 0 1.769-.791 1.769-1.767 0-.977-.792-1.768-1.77-1.768-.974 0-1.766.791-1.766 1.768 0 .976.792 1.767 1.767 1.767m9.447 0c.976 0 1.767-.791 1.767-1.767 0-.977-.791-1.768-1.767-1.768-.977 0-1.77.791-1.77 1.768 0 .976.793 1.767 1.77 1.767m9.445 0c.976 0 1.768-.791 1.768-1.767 0-.977-.792-1.768-1.768-1.768-.977 0-1.768.791-1.768 1.768 0 .976.79 1.767 1.768 1.767m9.445 0c.977 0 1.769-.791 1.769-1.767 0-.977-.792-1.768-1.77-1.768-.974 0-1.766.791-1.766 1.768 0 .976.792 1.767 1.767 1.767m-37.782 5.91C.79 75.565 0 76.357 0 77.334c0 .976.79 1.767 1.768 1.767.977 0 1.768-.791 1.768-1.767 0-.977-.791-1.769-1.768-1.769m9.445 3.536c.977 0 1.769-.791 1.769-1.767 0-.977-.792-1.769-1.77-1.769-.974 0-1.766.792-1.766 1.769 0 .976.792 1.767 1.767 1.767m9.447 0c.976 0 1.767-.791 1.767-1.767 0-.977-.791-1.769-1.767-1.769-.977 0-1.77.792-1.77 1.769 0 .976.793 1.767 1.77 1.767m9.445 0c.976 0 1.768-.791 1.768-1.767 0-.977-.792-1.769-1.768-1.769-.977 0-1.768.792-1.768 1.769 0 .976.79 1.767 1.768 1.767m7.678-1.767c0-.977.792-1.769 1.767-1.769.977 0 1.769.792 1.769 1.769 0 .976-.792 1.767-1.77 1.767-.974 0-1.766-.791-1.766-1.767" mask="url(#prefix__b)"/>
    </g>
</svg>
