<svg xmlns="http://www.w3.org/2000/svg" xmlns:xlink="http://www.w3.org/1999/xlink" width="52" height="49" viewBox="0 0 52 49">
    <defs>
        <path id="prefix__a" d="M0 0L43.122 0 43.122 43.117 0 43.117z"/>
    </defs>
    <g fill="none" fill-rule="evenodd">
        <circle cx="27.5" cy="24.5" r="24.5" fill="#FFF"/>
        <mask id="prefix__b" fill="#fff">
            <use xlink:href="#prefix__a"/>
        </mask>
        <path fill="#1D1D1B" d="M2.367 32.66H32.66V2.366H2.367V32.66zm4.859 2.366l5.725 5.724H9.765l-5.726-5.724h3.187zm6.527 0l5.73 5.724h-3.185l-5.725-5.724h3.18zm6.534 0l5.728 5.724H22.83l-5.728-5.724h3.185zm6.533 0l5.728 5.724h-3.184l-5.729-5.724h3.185zm6.532 0l.839.838 4.89 4.886h-3.184l-5.729-5.724h3.184zm1.674-1.674v-3.186l5.73 5.731v3.181l-5.73-5.726zm5.73-13.868l-5.73-5.732v-3.185l5.73 5.731v3.186zm-5.73.802V17.1l5.73 5.731v3.186l-5.73-5.73zm5.73 9.078v3.186l-5.73-5.73v-3.187l5.73 5.731zm0-19.599v3.186l-5.73-5.73V4.037l5.73 5.727zM.346 34.68l8.092 8.092c.225.22.524.346.837.346H41.94c.081 0 .144-.05.223-.068.075-.015.154.01.227-.024.036-.016.053-.053.087-.07.107-.057.185-.135.27-.222.083-.083.157-.157.211-.26.019-.035.058-.052.073-.089.029-.07.007-.145.021-.219.018-.08.07-.147.07-.23V9.274c0-.313-.126-.613-.345-.837L34.679.346C34.455.121 34.149 0 33.843 0H1.183C.531 0 0 .531 0 1.183v32.66c0 .035.035.057.038.092.022.274.107.54.308.744z" mask="url(#prefix__b)"/>
    </g>
</svg>
