<svg xmlns="http://www.w3.org/2000/svg" width="42" height="46" viewBox="0 0 42 46">
    <g fill="none" fill-rule="evenodd">
        <circle cx="21" cy="21" r="21" fill="#FFF"/>
        <path fill="#161616" d="M21.184 14.848c6.073 0 9.26 1.928 9.26 2.59 0 .664-3.187 2.587-9.26 2.587s-9.255-1.923-9.255-2.586c0-.663 3.182-2.59 9.255-2.59zm9.26 25.637c0 .663-3.187 2.586-9.26 2.586s-9.255-1.923-9.255-2.586V21.15c.127.065.289.108.422.17.355.162.726.31 1.122.448.25.087.495.174.759.251.478.141.976.26 1.491.369.205.043.4.092.61.13 1.543.28 3.193.435 4.851.435s3.308-.154 4.85-.435c.216-.039.416-.089.627-.133.51-.108 1.003-.226 1.476-.364.267-.079.515-.166.767-.254.393-.137.762-.285 1.115-.447.134-.06.297-.105.425-.17v19.335zM21.184 46c6.059 0 12.19-1.893 12.19-5.515V17.44c0-7.247-24.374-7.256-24.374 0v23.046C9 44.107 15.13 46 21.184 46z"/>
    </g>
</svg>
