<svg xmlns="http://www.w3.org/2000/svg" xmlns:xlink="http://www.w3.org/1999/xlink" width="34" height="34" viewBox="0 0 34 34">
    <defs>
        <path id="prefix__a" d="M0 0L33.77 0 33.77 33.765 0 33.765z"/>
    </defs>
    <g fill="none" fill-rule="evenodd">
        <mask id="prefix__b" fill="#fff">
            <use xlink:href="#prefix__a"/>
        </mask>
        <path fill="#4A4A4A" d="M1.853 25.576h23.723V1.853H1.853v23.723zm3.805 1.853l4.483 4.483H7.647L3.164 27.43h2.494zm5.112 0l4.487 4.483h-2.494L8.28 27.43h2.49zm5.117 0l4.486 4.483h-2.494l-4.486-4.483h2.493zm5.116 0l4.486 4.483h-2.494L18.51 27.43h2.494zm5.115 0l.658.657 3.829 3.826H28.11l-4.486-4.483h2.493zm1.31-1.31v-2.495l4.489 4.488v2.49l-4.488-4.484zm4.489-10.86l-4.488-4.489V8.276l4.488 4.488v2.494zm-4.488.627v-2.494l4.488 4.488v2.494l-4.488-4.488zm4.488 7.11v2.494l-4.488-4.488v-2.494l4.488 4.488zm0-15.348v2.494l-4.488-4.488V3.163l4.488 4.485zM.27 27.158l6.336 6.336c.177.172.412.271.656.271h25.58c.064 0 .114-.04.175-.052.058-.013.12.006.177-.02.03-.012.042-.04.07-.055.083-.044.144-.105.21-.173.066-.065.124-.124.166-.204.014-.027.045-.04.057-.07.022-.055.005-.113.016-.17.014-.064.056-.116.056-.182V7.262c0-.243-.1-.478-.27-.655L27.156.271C26.982.095 26.742 0 26.503 0H.927C.416 0 0 .416 0 .926v25.577c0 .028.027.044.03.072.017.215.083.423.241.583z" mask="url(#prefix__b)"/>
    </g>
</svg>
