<svg xmlns="http://www.w3.org/2000/svg" xmlns:xlink="http://www.w3.org/1999/xlink" width="42" height="42" viewBox="0 0 42 42">
    <defs>
        <path id="prefix__a" d="M0 0L24.393 0 24.393 34.346 0 34.346z"/>
    </defs>
    <g fill="none" fill-rule="evenodd">
        <circle cx="21" cy="21" r="21" fill="#FFF"/>
        <g transform="translate(17.143)">
            <mask id="prefix__b" fill="#fff">
                <use xlink:href="#prefix__a"/>
            </mask>
            <path fill="#1D1D1B" d="M12.199 4.551l7.484 17.957c-.066-.027-.156-.035-.223-.06-2.032-.796-4.529-1.266-7.261-1.266-2.753 0-5.27.478-7.315 1.287-.064.025-.15.032-.214.059L12.199 4.55zm12.194 23.23c0-.711-.235-1.428-.673-2.158-.002-.007.002-.013 0-.019L13.366.777C13.173.307 12.71 0 12.2 0s-.97.306-1.168.777L.608 25.674c-.003.009.003.018 0 .027-.384.648-.608 1.34-.608 2.08 0 3.745 5.244 6.565 12.199 6.565 6.95 0 12.194-2.82 12.194-6.565z" mask="url(#prefix__b)"/>
        </g>
    </g>
</svg>
