<svg xmlns="http://www.w3.org/2000/svg" width="45" height="56" viewBox="0 0 45 56">
    <g fill="none" fill-rule="evenodd" transform="translate(-1)">
        <circle cx="23" cy="35" r="21" fill="#FFF"/>
        <path fill="#1D1D1B" d="M2.917 4.06c1.06 0 1.918-.859 1.918-1.918S3.977.225 2.918.225c-1.06 0-1.919.858-1.919 1.917 0 1.06.858 1.918 1.918 1.918m10.245 0c1.06 0 1.917-.859 1.917-1.918S14.223.225 13.162.225c-1.059 0-1.918.858-1.918 1.917 0 1.06.86 1.918 1.918 1.918m10.245 0c1.06 0 1.918-.859 1.918-1.918S24.466.225 23.407.225c-1.058 0-1.918.858-1.918 1.917 0 1.06.86 1.918 1.918 1.918m10.246 0c1.059 0 1.916-.859 1.916-1.918S34.712.225 33.654.225c-1.06 0-1.918.858-1.918 1.917 0 1.06.858 1.918 1.918 1.918m10.245 0c1.058 0 1.917-.859 1.917-1.918S44.958.225 43.898.225c-1.06 0-1.918.858-1.918 1.917 0 1.06.859 1.918 1.918 1.918M2.918 14.305c1.058 0 1.917-.859 1.917-1.918s-.858-1.917-1.917-1.917c-1.06 0-1.919.858-1.919 1.917 0 1.06.858 1.918 1.918 1.918M13.162 45.04c1.06 0 1.917-.859 1.917-1.918s-.857-1.917-1.917-1.917c-1.059 0-1.918.858-1.918 1.917 0 1.06.86 1.918 1.918 1.918m10.245 0c1.06 0 1.918-.859 1.918-1.918s-.858-1.917-1.918-1.917c-1.058 0-1.918.858-1.918 1.917 0 1.06.86 1.918 1.918 1.918m10.246 0c1.059 0 1.916-.859 1.916-1.918s-.858-1.917-1.916-1.917c-1.06 0-1.918.858-1.918 1.917 0 1.06.858 1.918 1.918 1.918M23.408 55.285c1.058 0 1.916-.858 1.916-1.918 0-1.059-.858-1.917-1.917-1.917-1.058 0-1.918.858-1.918 1.917 0 1.06.86 1.918 1.918 1.918m-10.245-40.98c1.06 0 1.917-.859 1.917-1.918s-.857-1.917-1.917-1.917c-1.059 0-1.918.858-1.918 1.917 0 1.06.86 1.918 1.918 1.918m10.245 0c1.06 0 1.918-.859 1.918-1.918s-.858-1.917-1.918-1.917c-1.058 0-1.918.858-1.918 1.917 0 1.06.86 1.918 1.918 1.918m10.246 0c1.059 0 1.916-.859 1.916-1.918s-.858-1.917-1.916-1.917c-1.06 0-1.918.858-1.918 1.917 0 1.06.858 1.918 1.918 1.918m10.245 0c1.058 0 1.917-.859 1.917-1.918s-.858-1.917-1.917-1.917c-1.06 0-1.918.858-1.918 1.917 0 1.06.859 1.918 1.918 1.918M2.918 24.55c1.058 0 1.917-.858 1.917-1.917 0-1.059-.858-1.918-1.917-1.918-1.06 0-1.919.86-1.919 1.918 0 1.06.858 1.917 1.918 1.917m10.245 0c1.06 0 1.917-.858 1.917-1.917 0-1.059-.857-1.918-1.917-1.918-1.059 0-1.918.86-1.918 1.918 0 1.06.86 1.917 1.918 1.917m10.245 0c1.06 0 1.918-.858 1.918-1.917 0-1.059-.858-1.918-1.918-1.918-1.058 0-1.918.86-1.918 1.918 0 1.06.86 1.917 1.918 1.917m10.246 0c1.059 0 1.916-.858 1.916-1.917 0-1.059-.858-1.918-1.916-1.918-1.06 0-1.918.86-1.918 1.918 0 1.06.858 1.917 1.918 1.917m10.245 0c1.058 0 1.917-.858 1.917-1.917 0-1.059-.858-1.918-1.917-1.918-1.06 0-1.918.86-1.918 1.918 0 1.06.859 1.917 1.918 1.917m-40.98 6.41c-1.06 0-1.919.86-1.919 1.918 0 1.06.858 1.917 1.918 1.917s1.918-.858 1.918-1.917c0-1.059-.858-1.918-1.917-1.918m10.244 3.835c1.06 0 1.917-.858 1.917-1.917 0-1.059-.857-1.918-1.917-1.918-1.059 0-1.918.86-1.918 1.918 0 1.06.86 1.917 1.918 1.917m10.245 0c1.06 0 1.918-.858 1.918-1.917 0-1.059-.858-1.918-1.918-1.918-1.058 0-1.918.86-1.918 1.918 0 1.06.86 1.917 1.918 1.917m10.246 0c1.059 0 1.916-.858 1.916-1.917 0-1.059-.858-1.918-1.916-1.918-1.06 0-1.918.86-1.918 1.918 0 1.06.858 1.917 1.918 1.917m8.328-1.917c0-1.059.858-1.918 1.916-1.918 1.06 0 1.919.86 1.919 1.918 0 1.06-.86 1.917-1.919 1.917-1.058 0-1.916-.858-1.916-1.917"/>
    </g>
</svg>
