<svg xmlns="http://www.w3.org/2000/svg" width="49" height="56" viewBox="0 0 49 56">
    <g fill="none" fill-rule="evenodd">
        <circle cx="24.5" cy="31.5" r="24.5" fill="#FFF"/>
        <path fill="#161616" d="M16 50.135l8.969-8.97 8.968 8.97-1.674 1.674-7.294-7.294-7.296 7.294L16 50.135zm0-10.295l8.969-8.963 8.968 8.963-1.674 1.673-7.294-7.29-7.296 7.29L16 39.84zm0-10.291l8.969-8.968 8.968 8.968-1.674 1.674-7.294-7.294-7.296 7.294L16 29.549zm0-10.29l8.969-8.968 8.968 8.968-1.674 1.673-7.294-7.295-7.296 7.295L16 19.26zM24.969 0l8.967 8.963-1.674 1.673-7.294-7.289-7.295 7.29L16 8.962 24.97 0z"/>
    </g>
</svg>
