<?xml version="1.0" encoding="UTF-8"?> <svg xmlns="http://www.w3.org/2000/svg" width="42" height="44" viewBox="0 0 42 44"><g fill="none" fill-rule="evenodd"><circle cx="21" cy="21" r="21" fill="#FFF"></circle><path fill="#161616" d="M21.071 39.495l-7.41-17.777c.066.028.156.035.222.06 2.012.788 4.484 1.253 7.188 1.253 2.726 0 5.216-.473 7.241-1.274.064-.025.15-.033.212-.058l-7.453 17.796zM9 16.498c0 .704.232 1.414.666 2.136.002.007-.003.013 0 .02L19.915 43.23c.191.465.651.769 1.156.769.505 0 .96-.304 1.156-.769l10.318-24.647c.003-.008-.003-.018 0-.026.38-.642.603-1.327.603-2.06C33.148 12.79 27.956 10 21.07 10 14.191 10 9 12.791 9 16.498z"></path></g></svg> 