<?xml version="1.0" encoding="UTF-8"?> <svg xmlns="http://www.w3.org/2000/svg" xmlns:xlink="http://www.w3.org/1999/xlink" width="49" height="61" viewBox="0 0 49 61"><defs><path id="prefix__a" d="M0 0.542L51.344 0.542 51.344 14 0 14z"></path><path id="prefix__c" d="M0 0.199L51.344 0.199 51.344 13.657 0 13.657z"></path></defs><g fill="none" fill-rule="evenodd"><circle cx="24.5" cy="24.5" r="24.5" fill="#FFF" transform="translate(0 12)"></circle><g transform="rotate(90 12 12)"><mask id="prefix__b" fill="#fff"><use xlink:href="#prefix__a"></use></mask><path fill="#161616" d="M47.632 6.551C46.286 3.872 44.614.542 41.053.542c-3.562 0-5.234 3.33-6.579 6.009-1.327 2.642-2.235 4.244-3.719 4.244-1.47 0-2.378-1.602-3.699-4.238-1.339-2.679-3.01-6.015-6.572-6.015-3.556 0-5.227 3.336-6.567 6.009-1.32 2.642-2.228 4.244-3.699 4.244-1.484 0-2.392-1.602-3.719-4.244C5.165 3.894 3.501.601 0 .547v3.212c1.431.063 2.332 1.644 3.632 4.231C4.978 10.67 6.655 14 10.218 14c3.555 0 5.226-3.337 6.566-6.01 1.321-2.641 2.23-4.244 3.7-4.244 1.477 0 2.384 1.603 3.705 4.244C25.53 10.67 27.2 14 30.755 14c3.568 0 5.24-3.337 6.586-6.01 1.327-2.641 2.234-4.244 3.712-4.244 1.477 0 2.392 1.603 3.712 4.244 1.346 2.68 3.017 6.01 6.58 6.01v-3.205c-1.479 0-2.393-1.602-3.713-4.244" mask="url(#prefix__b)"></path></g><g transform="rotate(90 19.5 19.5)"><mask id="prefix__d" fill="#fff"><use xlink:href="#prefix__c"></use></mask><path fill="#161616" d="M47.632 6.208C46.286 3.53 44.614.2 41.053.2c-3.562 0-5.234 3.33-6.579 6.01-1.327 2.641-2.235 4.243-3.719 4.243-1.47 0-2.378-1.602-3.699-4.237C25.717 3.535 24.046.2 20.484.2c-3.556 0-5.227 3.336-6.567 6.01-1.32 2.641-2.228 4.243-3.699 4.243-1.484 0-2.392-1.602-3.719-4.244C5.165 3.551 3.501.26 0 .204v3.212c1.431.063 2.332 1.644 3.632 4.232 1.346 2.68 3.023 6.01 6.586 6.01 3.555 0 5.226-3.337 6.566-6.01 1.321-2.642 2.23-4.244 3.7-4.244 1.477 0 2.384 1.602 3.705 4.244 1.34 2.68 3.011 6.01 6.566 6.01 3.568 0 5.24-3.337 6.586-6.01 1.327-2.642 2.234-4.244 3.712-4.244 1.477 0 2.392 1.602 3.712 4.244 1.346 2.68 3.017 6.01 6.58 6.01v-3.206c-1.479 0-2.393-1.602-3.713-4.244" mask="url(#prefix__d)"></path></g></g></svg> 