<?xml version="1.0" encoding="UTF-8"?> <svg xmlns="http://www.w3.org/2000/svg" width="26" height="26" viewBox="0 0 26 26"><g fill="none" fill-rule="evenodd"><path d="M0 0L34 0 34 34 0 34z" transform="translate(-4 -4)"></path><path fill="#161616" d="M17 4.25C9.96 4.25 4.25 9.96 4.25 17S9.945 29.75 17 29.75c7.04 0 12.75-5.71 12.75-12.75S24.04 4.25 17 4.25zm0 22.667c-5.482 0-9.917-4.434-9.917-9.917 0-5.482 4.434-9.917 9.917-9.917s9.917 4.434 9.917 9.917-4.434 9.917-9.917 9.917zm-2.068-7.75l-3.018-3.017-1.502 1.502 4.505 4.505 8.5-8.5-1.501-1.502-6.984 7.013z" transform="translate(-4 -4)"></path></g></svg> 