<?xml version="1.0" encoding="UTF-8"?> <svg xmlns="http://www.w3.org/2000/svg" width="42" height="60" viewBox="0 0 42 60"><g fill="none" fill-rule="evenodd"><circle cx="21" cy="21.714" r="21" fill="#FFF"></circle><path fill="#1D1D1B" d="M27.544 47.59c0-3.596-2.928-6.525-6.525-6.525-3.597 0-6.525 2.929-6.525 6.525 0 3.596 2.928 6.524 6.525 6.524 3.597 0 6.525-2.928 6.525-6.524m5.065 0c0 6.391-5.199 11.59-11.59 11.59-6.39 0-11.591-5.199-11.591-11.59S14.628 36 21.019 36c6.391 0 11.59 5.199 11.59 11.59M19.021 14.279c0 3.595 2.928 6.524 6.524 6.524v5.065c-6.391 0-11.59-5.199-11.59-11.59s5.199-11.59 11.59-11.59v5.065c-3.596 0-6.524 2.928-6.524 6.526"></path></g></svg> 