<?xml version="1.0" encoding="UTF-8"?> <svg xmlns="http://www.w3.org/2000/svg" width="46" height="42" viewBox="0 0 46 42"><g fill="none" fill-rule="evenodd"><ellipse cx="25.13" cy="21" fill="#FFF" rx="20.87" ry="21"></ellipse><path fill="#1D1D1B" d="M18.793 11.426h1.595V3.429h-1.595v7.997zm4.702 1.03h1.595V4.46h-1.595v7.997zm-9.4 0h1.596V4.46h-1.595v7.997zm14.096 1.688h1.596V6.147h-1.596v7.997zm-18.792 0h1.595V6.147H9.4v7.997zm23.49 4.084h1.595v-7.997h-1.596v7.997zm-28.192 0h1.596v-7.997H4.697v7.997zm32.893 9.31h1.595V17.03H37.59v10.508zm-37.59 0h1.595V17.03H0v10.508zm32.888 6.803h1.596v-7.998h-1.596v7.998zm-28.19 0h1.595v-7.998H4.697v7.998zm23.493 4.083h1.596v-7.997h-1.596v7.997zm-18.792 0h1.595v-7.997H9.4v7.997zm14.096 1.688h1.595v-7.998h-1.595v7.998zm-9.4 0h1.596v-7.998h-1.595v7.998zm4.698 1.03h1.595v-7.997h-1.595v7.998z"></path></g></svg> 