<?xml version="1.0" encoding="UTF-8"?> <svg xmlns="http://www.w3.org/2000/svg" width="60" height="42" viewBox="0 0 60 42"><g fill="none" fill-rule="evenodd"><circle cx="39" cy="21" r="21" fill="#FFF"></circle><path fill="#1D1D1B" d="M50.816 19.795v3.763h2.026v-3.763h-2.026zM45.17 18.36v6.64h2.027v-6.64H45.17zm-5.646-1.437v9.515h2.027v-9.515h-2.027zm-5.645-1.437v12.39h2.027v-12.39h-2.027zm-5.645-1.437V29.31h2.026V14.048h-2.026zm-5.651-1.441v18.141h2.026V12.607h-2.026zm-5.646-1.438v21.016h2.027V11.169h-2.027zm-5.645-1.438v23.89h2.027V9.73h-2.027zM5.647 8.295v26.768h2.026V8.295H5.647zM0 6.857V36.5h2.028V6.857H0z"></path></g></svg> 