<?xml version="1.0" encoding="UTF-8"?> <svg xmlns="http://www.w3.org/2000/svg" xmlns:xlink="http://www.w3.org/1999/xlink" width="42" height="42" viewBox="0 0 42 42"><defs><path id="prefix__a" d="M0 0L28.498 0 28.498 28.498 0 28.498z"></path></defs><g fill="none" fill-rule="evenodd"><circle cx="21" cy="21" r="21" fill="#FFF"></circle><g transform="translate(0 12.857)"><mask id="prefix__b" fill="#fff"><use xlink:href="#prefix__a"></use></mask><path fill="#1D1D1B" d="M15.628 25.601v-9.973h9.974c-.636 5.225-4.75 9.338-9.974 9.973m-12.73-9.973h9.972v9.973c-5.225-.635-9.338-4.748-9.973-9.973m9.973-12.73v9.972H2.897c.635-5.223 4.748-9.338 9.973-9.973m12.732 9.973h-9.974V2.897c5.223.635 9.338 4.75 9.974 9.973M14.249 0C6.39 0 0 6.39 0 14.25c0 7.857 6.39 14.248 14.249 14.248 7.86 0 14.25-6.39 14.25-14.249 0-7.858-6.39-14.25-14.25-14.25" mask="url(#prefix__b)"></path></g></g></svg> 