<?xml version="1.0" encoding="UTF-8"?> <svg xmlns="http://www.w3.org/2000/svg" xmlns:xlink="http://www.w3.org/1999/xlink" width="62" height="42" viewBox="0 0 62 42"><defs><path id="prefix__a" d="M0 0H51.808V38.571H0z"></path></defs><g fill="none" fill-rule="evenodd"><ellipse cx="20.808" cy="21" fill="#FFF" rx="20.808" ry="21"></ellipse><g transform="translate(10.192 1.714)"><mask id="prefix__b" fill="#fff"><use xlink:href="#prefix__a"></use></mask><path fill="#1D1D1B" d="M-5.496 12.934c1.843 0 2.624.692 3.92 1.835C-.03 16.134 2.088 18 5.989 18c3.897 0 6.015-1.866 7.557-3.23 1.295-1.144 2.076-1.836 3.915-1.836 1.834 0 2.614.692 3.91 1.835C22.915 16.134 25.028 18 28.924 18c3.896 0 6.014-1.866 7.556-3.23 1.297-1.144 2.076-1.836 3.911-1.836s2.61.692 3.902 1.835C45.838 16.134 47.952 18 51.843 18c3.892 0 6-1.87 7.542-3.236 1.287-1.138 2.067-1.83 3.893-1.83 1.834 0 2.614.692 3.91 1.835C68.73 16.134 70.843 18 74.74 18v-6.076c-1.834 0-2.615-.692-3.91-1.835-1.542-1.366-3.656-3.232-7.552-3.232-3.893 0-6.001 1.87-7.543 3.236-1.287 1.139-2.067 1.83-3.892 1.83-1.834 0-2.61-.691-3.901-1.834-1.547-1.366-3.66-3.232-7.552-3.232-3.896 0-6.01 1.866-7.552 3.232-1.296 1.143-2.076 1.835-3.915 1.835-1.834 0-2.615-.692-3.91-1.835-1.543-1.366-3.656-3.232-7.552-3.232-3.896 0-6.014 1.866-7.556 3.232-1.297 1.143-2.076 1.835-3.916 1.835-1.844 0-2.628-.692-3.924-1.835C.518 8.723-1.6 6.857-5.496 6.857c-3.902 0-6.019 1.866-7.566 3.232-1.296 1.143-2.08 1.835-3.924 1.835V18c3.9 0 6.018-1.866 7.565-3.23 1.296-1.144 2.081-1.836 3.925-1.836M-16.986 30v-6.076c1.843 0 2.628-.693 3.924-1.836 1.547-1.365 3.664-3.23 7.566-3.23 3.896 0 6.014 1.865 7.561 3.23 1.296 1.143 2.08 1.836 3.924 1.836 1.84 0 2.62-.693 3.916-1.836 1.542-1.365 3.66-3.23 7.556-3.23s6.01 1.865 7.551 3.23c1.296 1.143 2.077 1.836 3.911 1.836 1.84 0 2.619-.693 3.915-1.836 1.542-1.365 3.656-3.23 7.552-3.23 3.892 0 6.005 1.865 7.552 3.23 1.291 1.143 2.067 1.836 3.901 1.836 1.825 0 2.605-.693 3.892-1.831 1.542-1.367 3.65-3.236 7.543-3.236 3.896 0 6.01 1.866 7.551 3.23 1.296 1.144 2.077 1.837 3.91 1.837V30c-3.896 0-6.01-1.866-7.551-3.232-1.296-1.142-2.076-1.834-3.91-1.834-1.826 0-2.606.692-3.893 1.83C57.843 28.128 55.735 30 51.843 30s-6.005-1.866-7.551-3.232c-1.291-1.142-2.067-1.834-3.902-1.834s-2.614.692-3.91 1.834C34.936 28.134 32.82 30 28.922 30c-3.896 0-6.01-1.866-7.551-3.232-1.297-1.142-2.077-1.834-3.911-1.834-1.84 0-2.62.692-3.915 1.834C12.004 28.134 9.886 30 5.989 30c-3.901 0-6.019-1.866-7.565-3.232-1.296-1.142-2.077-1.834-3.92-1.834-1.844 0-2.63.692-3.925 1.834C-10.968 28.134-13.086 30-16.986 30" mask="url(#prefix__b)"></path></g></g></svg> 