<?xml version="1.0" encoding="UTF-8"?> <svg xmlns="http://www.w3.org/2000/svg" width="16" height="16" viewBox="0 0 16 16"><g fill="none" fill-rule="evenodd"><path d="M0 0H24V24H0z" transform="translate(-4 -4)"></path><path fill="#161616" d="M18.113 12.784l1.735 1.32c.156.12.197.336.099.512l-1.645 2.768c-.099.176-.313.248-.502.176l-2.048-.8c-.428.312-.888.584-1.39.784l-.312 2.12c-.025.192-.198.336-.403.336h-3.29c-.206 0-.378-.144-.403-.336l-.313-2.12c-.501-.2-.962-.464-1.39-.784l-2.047.8c-.181.064-.403 0-.502-.176l-1.645-2.768c-.099-.176-.058-.392.099-.512l1.735-1.32c-.033-.256-.058-.52-.058-.784s.025-.528.058-.784l-1.735-1.32c-.157-.12-.206-.336-.099-.512l1.645-2.768c.099-.176.312-.248.502-.176l2.047.8c.428-.312.889-.584 1.39-.784l.313-2.12c.025-.192.197-.336.403-.336h3.29c.205 0 .378.144.403.336l.312 2.12c.502.2.962.464 1.39.784l2.048-.8c.181-.064.403 0 .502.176l1.645 2.768c.098.176.057.392-.1.512l-1.734 1.32c.032.256.057.512.057.784s-.025.528-.057.784zM12 15.13c1.729 0 3.13-1.401 3.13-3.13 0-1.729-1.401-3.13-3.13-3.13-1.729 0-3.13 1.401-3.13 3.13 0 1.729 1.401 3.13 3.13 3.13z" transform="translate(-4 -4)"></path></g></svg> 